<svg xmlns="http://www.w3.org/2000/svg"><symbol id="calender-icon" viewBox="0 0 288 288"><path fill="#fff" d="M230.6 43.8h-12.4V32.5c0-8-6.1-14.5-13.7-14.5s-13.7 6.5-13.7 14.5v11.3h-12.9V32.5c0-8-6.2-14.5-13.7-14.5s-13.7 6.5-13.7 14.5v11.3h-13V32.5c0-8-6.1-14.5-13.7-14.5s-13.7 6.5-13.7 14.5v11.3H97.2V32.5c0-8-6.2-14.5-13.7-14.5s-13.7 6.5-13.7 14.5v11.3H57.4C35.7 43.8 18 62.5 18 85.6v142.6c0 23.1 17.7 41.8 39.4 41.8h173.2c21.7 0 39.4-18.7 39.4-41.8V85.6c0-23.1-17.7-41.8-39.4-41.8zm0 197.2H57.4c-6.6 0-12-5.7-12-12.8V122.3h197.2v105.9c0 7.1-5.4 12.8-12 12.8z"/></symbol><symbol id="profile-icon" viewBox="0 0 288 288"><path fill="#fff" d="M216.7 270H71.3a21.2 21.2 0 0 1-15.8-7.5c-7-8-10.4-22-8.6-35.7 0-.1 3.2-27 6.8-54.8a34.1 34.1 0 0 1 21.2-27.4A35.2 35.2 0 0 1 110 150l2.7 2.1a53.1 53.1 0 0 0 62.6 0l2.6-2a33.8 33.8 0 0 1 34.2-5 35 35 0 0 1 21.8 28l7.2 53.8c1.7 13.7-1.6 27.6-8.6 35.6a21.2 21.2 0 0 1-15.8 7.5zM74.4 243.9h139.2a26.6 26.6 0 0 0 1.6-13.6l-7.2-53.8a9 9 0 0 0-5.6-7.2 8.1 8.1 0 0 0-8.2 1.2l-3.6 2.8a79.5 79.5 0 0 1-93.2 0l-3.8-2.9a8.8 8.8 0 0 0-9-1.5 7.9 7.9 0 0 0-5 6.5C76 203 72.9 229.8 72.8 230a27.5 27.5 0 0 0 1.6 13.9z"/><path fill="#fff" d="M144 143.9a63 63 0 0 1-62.6-58V85c-.1-1.3-.2-2.7-.2-4.1a62.9 62.9 0 0 1 125.8 0 67.3 67.3 0 0 1-.6 8.8 63.2 63.2 0 0 1-62.4 54.2zm0-99.8a36.8 36.8 0 0 0-36.8 36.8c0 .6.1 1.3.1 1.9v1a36.5 36.5 0 0 0 16.3 27.8 37.3 37.3 0 0 0 40.6 0 36.8 36.8 0 0 0 16.1-25.5 32.8 32.8 0 0 0 .4-5.2A36.8 36.8 0 0 0 144 44.1z"/></symbol><symbol id="delete-apt-icon" viewBox="0 0 288 288"><path fill="#fff" d="M194.7 88.6h-7.2v-6.3a8.1 8.1 0 0 0-16.1 0v6.3h-7.5v-6.3a8.1 8.1 0 0 0-16.1 0v6.3h-7.6v-6.3a8.1 8.1 0 0 0-16.1 0v6.3h-7.5v-6.3a8.1 8.1 0 0 0-16.1 0v6.3h-7.2a23 23 0 0 0-23.1 23.1v78.9a23.1 23.1 0 0 0 23.1 23.1h101.4a23.1 23.1 0 0 0 23.1-23.1v-78.9a23 23 0 0 0-23.1-23.1zm0 109H93.3a7 7 0 0 1-7.1-7V132h115.6v58.6a7 7 0 0 1-7.1 7z"/><path fill="#fff" d="M144 270a126 126 0 1 1 126-126 126.1 126.1 0 0 1-126 126zm0-231.1A105.1 105.1 0 1 0 249.1 144 105.2 105.2 0 0 0 144 38.9z"/><path fill="#fff" d="M54.951 69.612L69.73 54.834l163.42 163.42-14.78 14.778z"/></symbol><symbol id="logout-icon" viewBox="0 0 288 288"><path fill="#fff" d="M185.1 67.3a15.4 15.4 0 0 0 7 12.7 87 87 0 0 1 39 73.5c-.5 45.4-37 83.6-82.4 86.1A87.1 87.1 0 0 1 95.9 80a15.4 15.4 0 0 0 7-12.7c0-11.9-13.4-19.3-23.4-12.7a117.3 117.3 0 0 0-52.3 110.5c5.9 56.3 52.6 101 109.1 104.6 68.2 4.5 125.1-49.8 125.1-117.1a117.5 117.5 0 0 0-52.7-98 15.2 15.2 0 0 0-23.6 12.7z"/><path fill="#fff" d="M141.2 18.3c-7.3 1.3-12.4 8.2-12.4 15.6v115.6c0 7.4 5.1 14.3 12.4 15.7a15.3 15.3 0 0 0 18-14.9V33.2a15.2 15.2 0 0 0-18-14.9z"/></symbol></svg>