<svg xmlns="http://www.w3.org/2000/svg"><symbol id="bunny-icon" viewBox="0 0 288 288"><path fill="#fff" d="M122.4 141.8a12.9 12.9 0 1 1 12.9-12.9 12.9 12.9 0 0 1-12.9 12.9zm0-19.7a6.9 6.9 0 1 0 6.9 6.8 6.9 6.9 0 0 0-6.9-6.8zm50.5 17.1a12.9 12.9 0 1 1 0-25.7 12.9 12.9 0 0 1 0 25.7zm0-19.7a6.8 6.8 0 0 0-6.9 6.8 6.9 6.9 0 1 0 13.7 0 6.8 6.8 0 0 0-6.8-6.8zM144.5 149l4.4 2.9a.6.6 0 0 0 .9-.1l2.9-2.9a.7.7 0 0 0-.5-1.1h-7.3a.7.7 0 0 0-.4 1.2z"/><path fill="#fff" d="M95 207.8c-10.8 0-21.5-3.5-29.6-12.1h-.1c-11-12.8-16-29-14.3-46.8 1.4-15.7 8.1-32.1 18.7-46s27.9-21.2 42.7-16.6l6.6-4.1c9.7-6.9 21.3-10.6 31.9-10a39.6 39.6 0 0 1 20.3 7 23.1 23.1 0 0 1 1.9 1.6 10.7 10.7 0 0 0 1.6 1.4 7 7 0 0 0 2-.8l2.7-1A35.5 35.5 0 0 1 192 80c11.4 1.8 21.7 8.7 29.8 19.8a85.5 85.5 0 0 1 14.2 32.6c2.3 10.8 5.8 37.9-10.1 56.2a38.1 38.1 0 0 1-25.2 12.8c-10.8 1.2-25.2-.1-33.5-7.1a13.4 13.4 0 0 1-4.7-8c-.9-4.8 1.6-7.5 3.8-9.9l.8-.7a220.2 220.2 0 0 0 14.2-17c9.9-13.5 13.8-26.4 11.5-38.2a43.2 43.2 0 0 0-3.7-11 3 3 0 1 1 5.4-2.6 50.5 50.5 0 0 1 4.2 12.4c2.6 13.5-1.6 28-12.5 43a213.6 213.6 0 0 1-14.7 17.4 6 6 0 0 1-.8.8c-2.1 2.3-2.6 3-2.3 4.8a7.3 7.3 0 0 0 2.7 4.4c6.8 5.8 19.9 6.7 29 5.8a32.6 32.6 0 0 0 21.3-10.8c4.7-5.4 15-21.3 8.8-51-4.5-21.5-18.4-44.6-39.1-47.8a26 26 0 0 0-10.4.3l-1.6.7c-2 .8-3.8 1.6-5.5 1.3s-2.8-1.4-4.6-3.1l-1.2-1.1a32.9 32.9 0 0 0-17.2-5.9c-9.3-.6-19.6 2.7-28.1 9h-.2l-9.2 5.6-1.4-.5c-9.9-3.6-24.8-1.7-37.3 14.1-18.2 24-26.6 59.6-4.6 85.2 12.5 13.4 32.8 12.1 47.4 4.9 2.3-1.8 4.4-4.8 4.2-7.8-18.7-18.8-41.2-46.9-26.1-76.5a3 3 0 0 1 5.4 2.8c-13.5 26.4 8.2 52.7 25.7 70.2l.6.7.2.9c1 5.1-1.6 10.9-6.6 14.6l-.4.3a56.8 56.8 0 0 1-25.2 6.2z"/><path fill="#fff" d="M139.9 164a1.5 1.5 0 0 1-1.4-.9 1.6 1.6 0 0 1 .8-2c8.9-3.8 7.4-10.2 7.4-10.5a1.4 1.4 0 0 1 1-1.8 1.6 1.6 0 0 1 1.9 1.1c0 .1 2.2 9.1-9.1 14z"/><path fill="#fff" d="M157.5 164h-.6c-11.3-4.9-9.1-13.9-9-14a1.5 1.5 0 1 1 2.9.7c-.1.3-1.6 6.7 7.3 10.5a1.6 1.6 0 0 1 .8 2 1.4 1.4 0 0 1-1.4.8zm-92.9 28.7h6v40.26h-6zm155.6-6.3h6v44.55h-6zm-88.9-29.3l-.7-.2c-28.9-14.9-58.2-11.6-58.5-11.5a1.5 1.5 0 1 1-.4-3c.3 0 30.5-3.5 60.3 11.9a1.5 1.5 0 0 1-.7 2.8zm-5.4 8.1l-.8-.2c-20.7-12.1-34.5-7.2-34.7-7.1a1.5 1.5 0 0 1-1.9-.9 1.4 1.4 0 0 1 .9-1.9c.6-.2 15.3-5.5 37.3 7.3a1.5 1.5 0 0 1 .5 2 1.6 1.6 0 0 1-1.3.8zm40.5-12.6a1.3 1.3 0 0 1-1.3-.8 1.4 1.4 0 0 1 .6-2c29.8-15.4 60-11.9 60.3-11.9a1.5 1.5 0 1 1-.4 3c-.3-.1-29.6-3.4-58.5 11.5zm5.4 8.1a1.6 1.6 0 0 1-1.3-.8 1.5 1.5 0 0 1 .5-2c22-12.8 36.7-7.5 37.3-7.3a1.4 1.4 0 0 1 .9 1.9 1.5 1.5 0 0 1-1.9.9c-.2-.1-14.1-4.9-34.8 7.1z"/><path fill="#fff" d="M144 264a120 120 0 1 1 120-120 120.1 120.1 0 0 1-120 120zm0-232a112 112 0 1 0 112 112A112.1 112.1 0 0 0 144 32z"/></symbol><symbol id="bird-icon" viewBox="0 0 288 288"><circle cx="144" cy="144" r="116" fill="none" stroke="#fff" stroke-miterlimit="10" stroke-width="8"/><circle cx="115" cy="139" r="15" fill="none" stroke="#fff" stroke-miterlimit="10" stroke-width="6"/><circle cx="174" cy="135" r="15" fill="none" stroke="#fff" stroke-miterlimit="10" stroke-width="6"/><path fill="none" stroke="#fff" stroke-miterlimit="10" stroke-width="6" d="M77.7 239.2S37.2 120.1 93.2 88.1s96-3 96-3 41.8 25 31.4 146"/><path fill="#fff" d="M140.1 170.2c14.1 35.9 30.7-21.6 8-18.5a11.1 11.1 0 0 0-8 18.5z"/><path fill="none" stroke="#fff" stroke-linecap="round" stroke-miterlimit="10" stroke-width="3" d="M104.2 185.1s25 33.1 19 73m65.9-75s-25 33.1-19 73m-59.4-28.5s14.8 10.3 13.4 20.2m59.1-20.2s-14.8 10.3-13.4 20.2M124.2 48.1s-1.3 24.9 10.8 25-10.8-25-10.8-25z"/></symbol><symbol id="dog-icon" viewBox="0 0 288 288"><circle cx="144" cy="144" r="116" fill="none" stroke="#fff" stroke-miterlimit="10" stroke-width="8"/><circle cx="121" cy="139" r="15" fill="none" stroke="#fff" stroke-miterlimit="10" stroke-width="6"/><circle cx="176" cy="139" r="15" fill="none" stroke="#fff" stroke-miterlimit="10" stroke-width="6"/><path fill="none" stroke="#fff" stroke-miterlimit="10" stroke-width="6" d="M212.6 239.3s10.8-38.8 4.8-85.7c0 0 29 10.4 24-18.7s-46-61.5-53-56.3c-35.8-26.1-81.9-7-89.4-.6-7-5-48 26-53 54s24 18 24 18c-6 45 4.8 82.3 4.8 82.3l8.1 10.3"/><path fill="none" stroke="#fff" stroke-linecap="round" stroke-miterlimit="10" stroke-width="3" d="M108 180c0-14.4 18.1-26 40.5-26s40.5 11.6 40.5 26"/><path fill="#fff" d="M143.3 165.3l13.5 5.6a3.3 3.3 0 0 0 2.6-.2l9-5.5c1.3-.8.4-2.2-1.5-2.2h-22.5c-2 0-2.8 1.6-1.1 2.3z"/><path fill="none" stroke="#fff" stroke-linecap="round" stroke-miterlimit="10" stroke-width="3" d="M157 168.8s3.8 14.3-15.1 22.5m32.4 0c-18.9-8.2-15.1-22.5-15.1-22.5m9.3 19.2a10 10 0 0 1-20 0m-79-38.5a101.9 101.9 0 0 0 23.3-30m123.6 35.6s-2.1-22-17.8-34.2"/></symbol><symbol id="calender-icon" viewBox="0 0 288 288"><path fill="#fff" d="M230.6 43.8h-12.4V32.5c0-8-6.1-14.5-13.7-14.5s-13.7 6.5-13.7 14.5v11.3h-12.9V32.5c0-8-6.2-14.5-13.7-14.5s-13.7 6.5-13.7 14.5v11.3h-13V32.5c0-8-6.1-14.5-13.7-14.5s-13.7 6.5-13.7 14.5v11.3H97.2V32.5c0-8-6.2-14.5-13.7-14.5s-13.7 6.5-13.7 14.5v11.3H57.4C35.7 43.8 18 62.5 18 85.6v142.6c0 23.1 17.7 41.8 39.4 41.8h173.2c21.7 0 39.4-18.7 39.4-41.8V85.6c0-23.1-17.7-41.8-39.4-41.8zm0 197.2H57.4c-6.6 0-12-5.7-12-12.8V122.3h197.2v105.9c0 7.1-5.4 12.8-12 12.8z"/></symbol><symbol id="cat-icon" viewBox="0 0 288 288"><circle cx="144" cy="144" r="116" fill="none" stroke="#fff" stroke-miterlimit="10" stroke-width="8"/><path fill="none" stroke="#fff" stroke-miterlimit="10" stroke-width="6" d="M64.3 228.3c-2.5 1.1-5.6-110.9 18.4-158.1a3 3 0 0 1 5.1-.5L110 98.8a3.1 3.1 0 0 0 2.6 1.1l56.3-1.8a3.3 3.3 0 0 0 2.8-2.1l9.4-29.2a3.1 3.1 0 0 1 5.5-.8c11.3 16.7 45.5 74.4 42.7 156.6"/><circle cx="115" cy="139" r="15" fill="none" stroke="#fff" stroke-miterlimit="10" stroke-width="6"/><circle cx="174" cy="135" r="15" fill="none" stroke="#fff" stroke-miterlimit="10" stroke-width="6"/><path fill="#fff" d="M141.8 161.5l6.7 4.4a.9.9 0 0 0 1.3-.1l4.5-4.5a1 1 0 0 0-.8-1.7h-11.1a1.1 1.1 0 0 0-.6 1.9z"/><path fill="none" stroke="#fff" stroke-linecap="round" stroke-miterlimit="10" stroke-width="3" d="M147.3 163.4s3.8 14.3-15.1 22.5m17.3-22.5s-3.8 14.3 15.1 22.5M54.5 160.5s33-4 66 13m-46 1s16-6 40 8m123-26s-33-4-66 13m46 1s-16-6-40 8"/></symbol><symbol id="frog-icon" viewBox="0 0 288 288"><circle cx="73.2" cy="114.1" r="15" fill="none" stroke="#fff" stroke-miterlimit="10" stroke-width="6"/><circle cx="210.2" cy="99.1" r="15" fill="none" stroke="#fff" stroke-miterlimit="10" stroke-width="6"/><circle cx="144" cy="144" r="116" fill="none" stroke="#fff" stroke-miterlimit="10" stroke-width="8"/><path fill="none" stroke="#fff" stroke-miterlimit="10" stroke-width="8" d="M215 113.4c-.8 10.7 1.2 20.7 2.2 31.7 4 26 12 50 14.8 74.5M209.9 84.4c-9.7-15.3-27.7-7.3-41.7-1.3-16 6-32 4-49 1 0 0-22-7-32-3s-13 11-16.7 17.6m-3.1 132.4c7.4-43.9 16.3-56.8 1.6-101.9"/><path fill="none" stroke="#fff" stroke-linecap="round" stroke-miterlimit="10" stroke-width="6" d="M100.2 144.1s54 12 86-5"/><ellipse cx="135.7" cy="120.6" fill="#fff" rx="2.5" ry="4.5"/><ellipse cx="156.7" cy="118.6" fill="#fff" rx="2.5" ry="4.5"/><path fill="none" stroke="#fff" stroke-linecap="round" stroke-miterlimit="10" stroke-width="3" d="M124.7 193.6c3-2 41-21 55-22M107.4 81c7.7 5.5 16.1 11.6 21.3 19.6m51-24.5s-19 15.5-21 24.5"/></symbol><symbol id="profile-icon" viewBox="0 0 288 288"><path fill="#fff" d="M216.7 270H71.3a21.2 21.2 0 0 1-15.8-7.5c-7-8-10.4-22-8.6-35.7 0-.1 3.2-27 6.8-54.8a34.1 34.1 0 0 1 21.2-27.4A35.2 35.2 0 0 1 110 150l2.7 2.1a53.1 53.1 0 0 0 62.6 0l2.6-2a33.8 33.8 0 0 1 34.2-5 35 35 0 0 1 21.8 28l7.2 53.8c1.7 13.7-1.6 27.6-8.6 35.6a21.2 21.2 0 0 1-15.8 7.5zM74.4 243.9h139.2a26.6 26.6 0 0 0 1.6-13.6l-7.2-53.8a9 9 0 0 0-5.6-7.2 8.1 8.1 0 0 0-8.2 1.2l-3.6 2.8a79.5 79.5 0 0 1-93.2 0l-3.8-2.9a8.8 8.8 0 0 0-9-1.5 7.9 7.9 0 0 0-5 6.5C76 203 72.9 229.8 72.8 230a27.5 27.5 0 0 0 1.6 13.9z"/><path fill="#fff" d="M144 143.9a63 63 0 0 1-62.6-58V85c-.1-1.3-.2-2.7-.2-4.1a62.9 62.9 0 0 1 125.8 0 67.3 67.3 0 0 1-.6 8.8 63.2 63.2 0 0 1-62.4 54.2zm0-99.8a36.8 36.8 0 0 0-36.8 36.8c0 .6.1 1.3.1 1.9v1a36.5 36.5 0 0 0 16.3 27.8 37.3 37.3 0 0 0 40.6 0 36.8 36.8 0 0 0 16.1-25.5 32.8 32.8 0 0 0 .4-5.2A36.8 36.8 0 0 0 144 44.1z"/></symbol><symbol id="delete-apt-icon" viewBox="0 0 288 288"><path fill="#fff" d="M194.7 88.6h-7.2v-6.3a8.1 8.1 0 0 0-16.1 0v6.3h-7.5v-6.3a8.1 8.1 0 0 0-16.1 0v6.3h-7.6v-6.3a8.1 8.1 0 0 0-16.1 0v6.3h-7.5v-6.3a8.1 8.1 0 0 0-16.1 0v6.3h-7.2a23 23 0 0 0-23.1 23.1v78.9a23.1 23.1 0 0 0 23.1 23.1h101.4a23.1 23.1 0 0 0 23.1-23.1v-78.9a23 23 0 0 0-23.1-23.1zm0 109H93.3a7 7 0 0 1-7.1-7V132h115.6v58.6a7 7 0 0 1-7.1 7z"/><path fill="#fff" d="M144 270a126 126 0 1 1 126-126 126.1 126.1 0 0 1-126 126zm0-231.1A105.1 105.1 0 1 0 249.1 144 105.2 105.2 0 0 0 144 38.9z"/><path fill="#fff" d="M54.951 69.612L69.73 54.834l163.42 163.42-14.78 14.778z"/></symbol><symbol id="logout-icon" viewBox="0 0 288 288"><path fill="#fff" d="M185.1 67.3a15.4 15.4 0 0 0 7 12.7 87 87 0 0 1 39 73.5c-.5 45.4-37 83.6-82.4 86.1A87.1 87.1 0 0 1 95.9 80a15.4 15.4 0 0 0 7-12.7c0-11.9-13.4-19.3-23.4-12.7a117.3 117.3 0 0 0-52.3 110.5c5.9 56.3 52.6 101 109.1 104.6 68.2 4.5 125.1-49.8 125.1-117.1a117.5 117.5 0 0 0-52.7-98 15.2 15.2 0 0 0-23.6 12.7z"/><path fill="#fff" d="M141.2 18.3c-7.3 1.3-12.4 8.2-12.4 15.6v115.6c0 7.4 5.1 14.3 12.4 15.7a15.3 15.3 0 0 0 18-14.9V33.2a15.2 15.2 0 0 0-18-14.9z"/></symbol></svg>