<svg id="Layer_1" data-name="Layer 1" xmlns="http://www.w3.org/2000/svg" viewBox="0 0 64 64"><defs><style>.cls-1{fill:none;stroke:#fff;stroke-miterlimit:10;stroke-width:2px;}.cls-2{fill:#fff;}</style></defs><title>white-logo-64</title><line class="cls-1" x1="4.88" y1="20.93" x2="59.08" y2="20.93"/><circle class="cls-1" cx="17.73" cy="12.91" r="2.81"/><circle class="cls-1" cx="46.24" cy="12.91" r="2.81"/><path class="cls-2" d="M32.61,34.74S21,44.52,21,50.46s11.62,7.53,11.62,0Z"/><path class="cls-2" d="M32.61,34.74s11.71,9.85,11.71,15.84-11.71,7.58-11.71,0Z"/><ellipse class="cls-2" cx="32.61" cy="28.46" rx="2.11" ry="4.34"/><ellipse class="cls-2" cx="44.32" cy="35.41" rx="4.34" ry="2.11" transform="translate(-12.06 41.71) rotate(-45)"/><ellipse class="cls-2" cx="20.12" cy="35.41" rx="2.11" ry="4.34" transform="translate(-19.15 24.6) rotate(-45)"/><rect class="cls-1" x="4.89" y="4.9" width="54.2" height="54.2" rx="12"/><polygon class="cls-2" points="32.61 34.74 31.84 35.41 32.61 50.47 33.39 35.41 32.61 34.74"/></svg>