<svg id="Layer_1" data-name="Layer 1" xmlns="http://www.w3.org/2000/svg" viewBox="0 0 256 256"><defs><style>.cls-1,.cls-2{fill:none;stroke:#fff;stroke-miterlimit:10;}.cls-1{stroke-width:7px;}.cls-2{stroke-width:5px;}.cls-3{fill:#fff;}</style></defs><title>white-logo-256</title><rect class="cls-1" x="19.53" y="19.28" width="216.79" height="216.79" rx="24.58"/><line class="cls-1" x1="19.53" y1="70.07" x2="236.32" y2="70.07"/><circle class="cls-2" cx="70.9" cy="45.04" r="11.24"/><circle class="cls-2" cx="184.98" cy="45.04" r="11.24"/><path class="cls-3" d="M130.44,130.3s-52.25,44-52.25,70.69,52.25,33.84,52.25,0Z"/><path class="cls-3" d="M130.44,130.3s52.26,44,52.26,70.69-52.26,33.84-52.26,0Z"/><ellipse class="cls-3" cx="130.44" cy="103.33" rx="8.46" ry="17.35"/><ellipse class="cls-3" cx="177.29" cy="131.2" rx="17.35" ry="8.46" transform="translate(-40.85 163.79) rotate(-45)"/><ellipse class="cls-3" cx="80.5" cy="131.2" rx="8.46" ry="17.35" transform="translate(-69.2 95.35) rotate(-45)"/><polygon class="cls-3" points="130.44 130.3 127.93 132.48 130.44 201 132.65 132.21 130.44 130.3"/></svg>